<?xml version="1.0" encoding="UTF-8"?>
<svg id="Layer_2" data-name="Layer 2" xmlns="http://www.w3.org/2000/svg" viewBox="0 0 298.54 298.53">
  <defs>
    <style>
      .cls-1 {
        fill: #ea580c;
        font-family: Poppins-Bold, Poppins;
        font-size: 24px;
        font-weight: 700;
      }
    </style>
  </defs>
  <g id="Layer_1-2" data-name="Layer 1">
    <text class="cls-1" transform="translate(54.28 102.75) rotate(-57.06)"><tspan x="0" y="0">W</tspan></text>
    <text class="cls-1" transform="translate(68.03 82.4) rotate(-47.06)"><tspan x="0" y="0">E</tspan></text>
    <text class="cls-1" transform="translate(76.43 73.18) rotate(-39.49)"><tspan x="0" y="0">B</tspan></text>
    <text class="cls-1" transform="translate(88.51 63.54) rotate(-33.96)"><tspan x="0" y="0"> </tspan></text>
    <text class="cls-1" transform="translate(92.2 60.65) rotate(-28.01)"><tspan x="0" y="0">D</tspan></text>
    <text class="cls-1" transform="translate(107.19 52.81) rotate(-19.96)"><tspan x="0" y="0">E</tspan></text>
    <text class="cls-1" transform="translate(118.77 48.29) rotate(-11.36)"><tspan x="0" y="0">V</tspan></text>
    <text class="cls-1" transform="translate(135.46 44.96) rotate(-4.07)"><tspan x="0" y="0">E</tspan></text>
    <text class="cls-1" transform="translate(147.99 44.08) rotate(2.39)"><tspan x="0" y="0">L</tspan></text>
    <text class="cls-1" transform="translate(158.9 44.24) rotate(10.4)"><tspan x="0" y="0">O</tspan></text>
    <text class="cls-1" transform="translate(176.85 47.64) rotate(19.32)"><tspan x="0" y="0">P</tspan></text>
    <text class="cls-1" transform="translate(190.52 52.47) rotate(26.66)"><tspan x="0" y="0">E</tspan></text>
    <text class="cls-1" transform="translate(201.74 57.97) rotate(34.15)"><tspan x="0" y="0">R</tspan></text>
    <text class="cls-1" transform="translate(214.22 66.58) rotate(41.07)"><tspan x="0" y="0">/</tspan></text>
    <text class="cls-1" transform="translate(222.21 73.22) rotate(48.51)"><tspan x="0" y="0">D</tspan></text>
    <text class="cls-1" transform="translate(233.33 85.96) rotate(56.55)"><tspan x="0" y="0">E</tspan></text>
    <text class="cls-1" transform="translate(240.29 96.33) rotate(63.89)"><tspan x="0" y="0">S</tspan></text>
    <text class="cls-1" transform="translate(246.45 109.31) rotate(69.66)"><tspan x="0" y="0">I</tspan></text>
    <text class="cls-1" transform="translate(249.09 115.43) rotate(76.29)"><tspan x="0" y="0">G</tspan></text>
    <text class="cls-1" transform="translate(253.32 132.56) rotate(85.73)"><tspan x="0" y="0">N</tspan></text>
    <text class="cls-1" transform="translate(254.48 150.02) rotate(93.93)"><tspan x="0" y="0">E</tspan></text>
    <text class="cls-1" transform="translate(253.75 162.51) rotate(101.52)"><tspan x="0" y="0">R</tspan></text>
    <text class="cls-1" transform="translate(250.47 177.41) rotate(106.99)"><tspan x="0" y="0"> </tspan></text>
    <text class="cls-1" transform="translate(249.44 181.99) rotate(112.96)"><tspan x="0" y="0">A</tspan></text>
    <text class="cls-1" transform="translate(242.83 197.75) rotate(122.31)"><tspan x="0" y="0">N</tspan></text>
    <text class="cls-1" transform="translate(233.53 212.5) rotate(131.59)"><tspan x="0" y="0">D</tspan></text>
    <text class="cls-1" transform="translate(222 225.05) rotate(137.51)"><tspan x="0" y="0"> </tspan></text>
    <text class="cls-1" transform="translate(218.77 228.48) rotate(143.52)"><tspan x="0" y="0">A</tspan></text>
    <text class="cls-1" transform="translate(204.71 238.49) rotate(149.54)"><tspan x="0" y="0"> </tspan></text>
    <text class="cls-1" transform="translate(201.01 241.32) rotate(156.71)"><tspan x="0" y="0">M</tspan></text>
    <text class="cls-1" transform="translate(181.29 249.59) rotate(166.79)"><tspan x="0" y="0">A</tspan></text>
    <text class="cls-1" transform="translate(164.71 253.51) rotate(176.42)"><tspan x="0" y="0">N</tspan></text>
    <text class="cls-1" transform="translate(147.11 254.29) rotate(-177.48)"><tspan x="0" y="0"> </tspan></text>
    <text class="cls-1" transform="translate(142.43 254.49) rotate(-171.14)"><tspan x="0" y="0">O</tspan></text>
    <text class="cls-1" transform="translate(124.37 251.5) rotate(-162.69)"><tspan x="0" y="0">F</tspan></text>
    <text class="cls-1" transform="translate(112.2 247.54) rotate(-157.9)"><tspan x="0" y="0"> </tspan></text>
    <text class="cls-1" transform="translate(107.71 246.12) rotate(-151.78)"><tspan x="0" y="0">C</tspan></text>
    <text class="cls-1" transform="translate(92.14 237.76) rotate(-142.59)"><tspan x="0" y="0">U</tspan></text>
    <text class="cls-1" transform="translate(79.18 227.66) rotate(-135.14)"><tspan x="0" y="0">L</tspan></text>
    <text class="cls-1" transform="translate(71.32 219.99) rotate(-128.4)"><tspan x="0" y="0">T</tspan></text>
    <text class="cls-1" transform="translate(62.74 209.39) rotate(-120.18)"><tspan x="0" y="0">U</tspan></text>
    <text class="cls-1" transform="translate(54.51 195.24) rotate(-111.56)"><tspan x="0" y="0">R</tspan></text>
    <text class="cls-1" transform="translate(49.01 181.15) rotate(-104.08)"><tspan x="0" y="0">E</tspan></text>
  </g>
</svg>